<mxfile host="app.diagrams.net" modified="2023-10-29T15:14:13.437Z" agent="Mozilla/5.0 (Windows NT 10.0; Win64; x64) AppleWebKit/537.36 (KHTML, like Gecko) Chrome/118.0.0.0 Safari/537.36" etag="l5t2Ruu01727rkyoellC" version="22.0.8" type="github">
  <diagram name="Seite-1" id="wMDI8dZVMcPZ2ughkcTs">
    <mxGraphModel dx="1434" dy="790" grid="1" gridSize="10" guides="1" tooltips="1" connect="1" arrows="1" fold="1" page="1" pageScale="1" pageWidth="827" pageHeight="1169" math="0" shadow="0">
      <root>
        <mxCell id="0" />
        <mxCell id="1" parent="0" />
        <mxCell id="AZC1r9gL1J6Y8N8dcFWN-1" value="Erste Ziffer von der Zahl ausrechnen (rest = n%10)" style="rounded=0;whiteSpace=wrap;html=1;" vertex="1" parent="1">
          <mxGeometry x="350" y="380" width="120" height="60" as="geometry" />
        </mxCell>
        <mxCell id="AZC1r9gL1J6Y8N8dcFWN-2" value="" style="shape=flexArrow;endArrow=classic;html=1;rounded=0;" edge="1" parent="1">
          <mxGeometry width="50" height="50" relative="1" as="geometry">
            <mxPoint x="470" y="420" as="sourcePoint" />
            <mxPoint x="550" y="420" as="targetPoint" />
          </mxGeometry>
        </mxCell>
        <mxCell id="AZC1r9gL1J6Y8N8dcFWN-3" value="Zwischenspeichern: Zwischensumme = Zwischensummen + rest" style="rounded=0;whiteSpace=wrap;html=1;" vertex="1" parent="1">
          <mxGeometry x="550" y="390" width="120" height="60" as="geometry" />
        </mxCell>
        <mxCell id="AZC1r9gL1J6Y8N8dcFWN-4" value="" style="shape=flexArrow;endArrow=classic;html=1;rounded=0;" edge="1" parent="1" target="AZC1r9gL1J6Y8N8dcFWN-5">
          <mxGeometry width="50" height="50" relative="1" as="geometry">
            <mxPoint x="600" y="450" as="sourcePoint" />
            <mxPoint x="600" y="540" as="targetPoint" />
          </mxGeometry>
        </mxCell>
        <mxCell id="AZC1r9gL1J6Y8N8dcFWN-11" value="" style="edgeStyle=orthogonalEdgeStyle;rounded=0;orthogonalLoop=1;jettySize=auto;html=1;" edge="1" parent="1" source="AZC1r9gL1J6Y8N8dcFWN-5" target="AZC1r9gL1J6Y8N8dcFWN-10">
          <mxGeometry relative="1" as="geometry" />
        </mxCell>
        <mxCell id="AZC1r9gL1J6Y8N8dcFWN-5" value="Zahl durch 10 teilen: n=n/10" style="rounded=0;whiteSpace=wrap;html=1;" vertex="1" parent="1">
          <mxGeometry x="540" y="510" width="120" height="60" as="geometry" />
        </mxCell>
        <mxCell id="AZC1r9gL1J6Y8N8dcFWN-6" value="" style="curved=1;endArrow=classic;html=1;rounded=0;exitX=0;exitY=0.75;exitDx=0;exitDy=0;entryX=0.375;entryY=1.017;entryDx=0;entryDy=0;entryPerimeter=0;" edge="1" parent="1" source="AZC1r9gL1J6Y8N8dcFWN-5" target="AZC1r9gL1J6Y8N8dcFWN-1">
          <mxGeometry width="50" height="50" relative="1" as="geometry">
            <mxPoint x="390" y="430" as="sourcePoint" />
            <mxPoint x="370" y="460" as="targetPoint" />
            <Array as="points">
              <mxPoint x="440" y="430" />
              <mxPoint x="500" y="620" />
              <mxPoint x="460" y="670" />
              <mxPoint x="350" y="580" />
              <mxPoint x="350" y="590" />
              <mxPoint x="390" y="380" />
            </Array>
          </mxGeometry>
        </mxCell>
        <mxCell id="AZC1r9gL1J6Y8N8dcFWN-7" value="Solange weitere Ziffern vorhanden sind" style="text;html=1;align=center;verticalAlign=middle;resizable=0;points=[];autosize=1;strokeColor=none;fillColor=none;" vertex="1" parent="1">
          <mxGeometry x="255" y="568" width="230" height="30" as="geometry" />
        </mxCell>
        <mxCell id="AZC1r9gL1J6Y8N8dcFWN-10" value="Programm fertig und Standardausgabe des Ergebnis" style="rounded=0;whiteSpace=wrap;html=1;" vertex="1" parent="1">
          <mxGeometry x="540" y="650" width="120" height="60" as="geometry" />
        </mxCell>
      </root>
    </mxGraphModel>
  </diagram>
</mxfile>
